#!OML:ASF H:\Terrain\Patient Classification 1\Walking\liu\liu.ASF
:FULLY-SPECIFIED
:DEGREES
50
root 0.019 16.0573 12.029 6.70415 0.1154 1.81128
lowerback -2.76391 1.09691 -4.53152
upperback 0.187459 1.58907 1.44735
thorax 1.5793 0.750456 4.09946
lowerneck -22.7957 -4.7447 -12.7061
upperneck 21.2918 -5.53818 12.6343
head 11.4415 -2.00115 5.92783
rclavicle -2.13694e-015 -4.37326e-015
rhumerus -31.199 17.2194 -86.6081
rradius 42.3347
rwrist -20.3055
rhand -31.5756 -25.476
rfingers 7.12502
rthumb -4.83895 -55.4008
lclavicle -2.13694e-015 -4.37326e-015
lhumerus -47.7143 -0.488088 84.6743
lradius 20.7737
lwrist -4.12576
lhand -10.4099 -23.3225
lfingers 7.12502
lthumb 15.5889 6.06928
rfemur -4.30513 -2.96375 16.3963
rtibia 56.653
rfoot 16.5373 -4.64939
rtoes -6.33517
lfemur -32.0051 4.43999 -27.3087
ltibia 32.2946
lfoot -6.67434 3.44584
ltoes 2.33992
51
root 0.0191 16.0863 12.2745 6.62925 0.1154 1.83796
lowerback -2.77441 0.946238 -4.53993
upperback 0.287214 1.38964 1.47718
thorax 1.70794 0.645048 4.12985
lowerneck -23.045 -4.53428 -12.2815
upperneck 21.5306 -5.33887 12.4717
head 11.5296 -1.88812 5.83672
rclavicle 8.64713e-015 7.95139e-015
rhumerus -31.718 16.9664 -86.6521
rradius 42.2155
rwrist -20.151
rhand -31.2636 -25.3536
rfingers 7.12502
rthumb -4.53765 -55.285
lclavicle 8.64713e-015 7.95139e-015
lhumerus -46.8083 -0.48448 84.7374
lradius 20.8185
lwrist -4.13506
lhand -10.5231 -23.4253
lfingers 7.12502
lthumb 15.4798 5.97493
rfemur -5.97318 -3.14646 16.4791
rtibia 59.1705
rfoot 15.7694 -6.98456
rtoes -3.76268
lfemur -31.1021 4.483 -27.4055
ltibia 32.0812
lfoot -7.52042 3.37188
ltoes 2.28514
52
root 0.0191 16.113 12.52 6.69187 0.1154 1.68843
lowerback -2.87112 0.852769 -4.28506
upperback 0.302462 1.26016 1.49142
thorax 1.7964 0.580063 3.99803
lowerneck -22.1235 -4.7781 -11.6671
upperneck 20.341 -5.50687 10.9745
head 10.865 -2.11616 5.07275
rclavicle -1.26725e-014 -7.15625e-015
rhumerus -32.2606 16.4353 -86.7589
rradius 41.8506
rwrist -19.9076
rhand -30.78 -25.0589
rfingers 7.12502
rthumb -4.07069 -54.9998
lclavicle -1.26725e-014 -7.15625e-015
lhumerus -45.8633 -0.488769 84.6848
lradius 20.6941
lwrist -4.47859
lhand -10.7522 -23.6475
lfingers 7.12502
lthumb 15.2592 5.76963
rfemur -7.63397 -3.29756 16.7835
rtibia 61.3096
rfoot 13.9707 -9.18901
rtoes 0.316473
lfemur -30.3967 4.64415 -27.3395
ltibia 31.9882
lfoot -8.60001 3.23568
ltoes 1.47974
53
root 0.0191 16.1339 12.7655 6.79824 0.1154 1.42958
lowerback -3.06673 0.777176 -3.87989
upperback 0.30648 1.15127 1.53797
thorax 1.92791 0.526216 3.81696
lowerneck -23.2234 -4.43464 -12.1006
upperneck 21.6835 -5.17675 12.1874
head 11.5818 -1.82981 5.72921
rclavicle -8.34896e-015 -1.31198e-014
rhumerus -32.7372 15.9325 -86.8458
rradius 41.3359
rwrist -19.7422
rhand -30.0919 -23.7329
rfingers 7.12502
rthumb -3.40624 -53.6854
lclavicle -8.34896e-015 -1.31198e-014
lhumerus -44.7497 -0.40327 84.5797
lradius 20.3859
lwrist -4.92601
lhand -10.7944 -23.9615
lfingers 7.12502
lthumb 15.2185 5.45881
rfemur -9.20249 -3.43064 17.2465
rtibia 63.1214
rfoot 11.7708 -10.7643
rtoes 3.05748
lfemur -29.7192 4.79831 -27.1447
ltibia 31.8483
lfoot -9.53521 3.10065
ltoes 1.59991
54
root 0.0191 16.158 13.011 6.87149 0.1154 1.16877
lowerback -3.15054 0.684261 -3.61402
upperback 0.283494 1.01661 1.7015
thorax 1.96548 0.460451 3.83168
lowerneck -22.9256 -4.54134 -12.7266
upperneck 21.509 -5.17534 12.3831
head 11.4836 -1.86706 5.90499
rclavicle 1.41137e-014 -1.19271e-015
rhumerus -33.1355 15.8758 -86.8187
rradius 40.7894
rwrist -19.7729
rhand -30.1185 -23.1345
rfingers 7.12502
rthumb -3.43187 -53.0866
lclavicle 1.41137e-014 -1.19271e-015
lhumerus -43.7039 -0.387012 84.7212
lradius 20.1916
lwrist -5.22035
lhand -11.0362 -24.1152
lfingers 7.12502
lthumb 14.9856 5.32255
rfemur -10.7744 -3.60342 17.7543
rtibia 64.727
rfoot 10.4176 -10.891
rtoes 2.43641
lfemur -28.8916 4.66702 -26.8604
ltibia 31.4897
lfoot -10.1042 3.05071
ltoes 3.07135
55
root 0.0192 16.2018 13.2565 6.89634 0.1154 1.0014
lowerback -3.0273 0.517039 -3.5057
upperback 0.243084 0.782189 1.85891
thorax 1.87564 0.346329 3.92091
lowerneck -22.7501 -4.51739 -12.6781
upperneck 21.336 -5.10421 12.1579
head 11.3652 -1.86218 5.8112
rclavicle 6.06293e-015 -1.03368e-014
rhumerus -33.5991 15.5833 -86.7708
rradius 40.3688
rwrist -19.4326
rhand -30.4363 -23.4809
rfingers 7.12502
rthumb -3.73882 -53.4279
lclavicle 6.06293e-015 -1.03368e-014
lhumerus -42.6653 -0.287917 84.8113
lradius 20.0498
lwrist -5.46542
lhand -11.2552 -24.1867
lfingers 7.12502
lthumb 14.7746 5.26668
rfemur -12.4698 -3.82403 18.1604
rtibia 66.1781
rfoot 9.17324 -10.8279
rtoes 1.8406
lfemur -27.8729 4.33117 -26.6555
ltibia 30.9033
lfoot -10.394 3.05854
ltoes 3.02389
